<?xml version="1.0" encoding="iso-8859-1"?>
<!-- Generator: Adobe Illustrator 19.0.0, SVG Export Plug-In . SVG Version: 6.00 Build 0)  -->
<svg xmlns="http://www.w3.org/2000/svg" xmlns:xlink="http://www.w3.org/1999/xlink" version="1.1" id="Layer_1" x="0px" y="0px" viewBox="0 0 490 490" style="enable-background:new 0 0 490 490;" xml:space="preserve" width="512px" height="512px">
<g>
	<g>
		<g>
			<path d="M425,0H65c-5.523,0-10,4.477-10,10v470c0,5.523,4.477,10,10,10h279.987c0.003,0,0.007,0,0.01,0     c2.603,0,5.161-1.017,7.074-2.929l80-80c1.912-1.913,2.904-4.47,2.905-7.071H435V10C435,4.477,430.523,0,425,0z M355,455.858V410     h45.858L355,455.858z M415,390h-70c-5.523,0-10,4.477-10,10v70H75V20h340V390z" fill="#006DF0"/>
			<rect x="110" y="50" width="80" height="20" fill="#006DF0"/>
			<rect x="110" y="80" width="130" height="20" fill="#006DF0"/>
			<path d="M120,430h180v-20h-95v-90h155v40.005h20V135c0-5.523-4.477-10-10-10H120c-5.523,0-10,4.477-10,10v285     C110,425.523,114.477,430,120,430z M205,145h155v35H205V145z M205,200h155v40H205V200z M205,260h155v40H205V260z M130,145h55v35     h-55V145z M130,200h55v210h-55V200z" fill="#006DF0"/>
			<rect x="145" y="215" width="25" height="20" fill="#006DF0"/>
			<rect x="145" y="275" width="25" height="20" fill="#006DF0"/>
			<rect x="145" y="335" width="25" height="20" fill="#006DF0"/>
			<rect x="145" y="375" width="25" height="20" fill="#006DF0"/>
		</g>
	</g>
</g>
<g>
</g>
<g>
</g>
<g>
</g>
<g>
</g>
<g>
</g>
<g>
</g>
<g>
</g>
<g>
</g>
<g>
</g>
<g>
</g>
<g>
</g>
<g>
</g>
<g>
</g>
<g>
</g>
<g>
</g>
</svg>
