<?xml version="1.0" encoding="UTF-8" standalone="no"?>
<svg
   xmlns:dc="http://purl.org/dc/elements/1.1/"
   xmlns:cc="http://creativecommons.org/ns#"
   xmlns:rdf="http://www.w3.org/1999/02/22-rdf-syntax-ns#"
   xmlns:svg="http://www.w3.org/2000/svg"
   xmlns="http://www.w3.org/2000/svg"
   id="svg4521"
   preserveAspectRatio="xMidYMid meet"
   viewBox="0 0 295.92081 37.5"
   height="37.5pt"
   width="295.92081pt"
   version="1.0">
  <defs
     id="defs4525" />
  <metadata
     id="metadata4485">
Created by potrace 1.15, written by Peter Selinger 2001-2017
<rdf:RDF>
  <cc:Work
     rdf:about="">
    <dc:format>image/svg+xml</dc:format>
    <dc:type
       rdf:resource="http://purl.org/dc/dcmitype/StillImage" />
    <dc:title></dc:title>
  </cc:Work>
</rdf:RDF>
</metadata>
  <g
     style="fill:#ffffff;fill-opacity:1"
     transform="matrix(0.13339381,0,0,0.13339381,-88.706884,-106.35342)"
     id="g4557">
    <path
       style="fill:#ffffff;fill-opacity:1;stroke:none;stroke-width:0.1"
       id="path4491"
       d="m 2419.5,797.6 c -48.2,7.2 -85,31.5 -107.4,70.9 -22.4,39.4 -24.1,91.4 -4.2,132.8 18.8,39 56.7,66.5 103.1,74.9 15.3,2.7 43.5,3 59.6,0.5 28.4,-4.4 55.9,-16 80.7,-34.2 l 7.7,-5.6 v -61 -60.9 h -62 -62 v 27.5 27.5 h 26.5 26.5 v 16.6 16.5 l -8.2,3.8 c -12.3,5.7 -17.1,6.6 -35.3,6.6 -14.5,-0.1 -16.7,-0.3 -23.8,-2.7 -31.5,-10.6 -49.7,-37 -49.7,-72.4 0,-30.7 14.4,-55.2 40,-68.1 10.2,-5.1 18.8,-6.6 34.9,-6 20.3,0.8 34.5,5.9 51.7,18.8 6.1,4.6 8.1,5.6 9,4.6 0.6,-0.6 9.8,-11.8 20.4,-24.7 10.6,-12.9 20,-24.3 20.9,-25.4 1.5,-1.7 1.4,-2 -1.9,-4.8 -12.7,-10.7 -36.7,-23.8 -53,-28.8 -16,-5 -25.5,-6.2 -49,-6.5 -11.8,-0.2 -22.8,-0.1 -24.5,0.1 z" />
    <path
       style="fill:#ffffff;fill-opacity:1;stroke:none;stroke-width:0.1"
       id="path4493"
       d="m 2714,798.4 c -74.2,11.6 -125.3,73.4 -121.6,147.1 1,20.7 5.1,36.5 14.2,54.9 7,14.1 14.7,24.9 25.9,36.1 20.8,20.7 48.1,34.8 78,40.1 13.7,2.4 40.3,2.4 54,0 53.5,-9.5 97.2,-46.8 112.8,-96.2 4.8,-15.1 6.1,-24.5 6.1,-43.4 0,-14.2 -0.4,-19.4 -2.2,-27.7 -6.1,-28.2 -17.7,-49.8 -37.7,-69.9 -19.9,-20.1 -44.3,-33.4 -72,-39.4 -12.8,-2.8 -44.4,-3.6 -57.5,-1.6 z m 33.4,66.6 c 27.3,4 48.7,23.4 56.8,51.6 3.3,11.3 3.2,31.3 0,42.9 -5.6,19.6 -18.7,36 -35.2,44.3 -28.6,14.3 -63.3,6.9 -83.6,-17.9 -23,-28 -22.1,-73 1.9,-99.5 15.3,-16.9 37.2,-24.7 60.1,-21.4 z" />
    <path
       style="fill:#ffffff;fill-opacity:1;stroke:none;stroke-width:0.1"
       id="path4495"
       d="M 665,937.4 V 1073 h 37.5 37.5 v -41 -41 h 16.9 16.9 l 27.1,41 27.2,41 h 43 42.9 l -1.7,-2.7 c -2.5,-3.8 -48,-70.6 -56,-82 l -6.4,-9.2 5.3,-2.7 c 21.3,-10.7 37.6,-27.8 44.7,-46.8 8.6,-23.2 7.3,-56.2 -3,-76.9 -13.2,-26.3 -36,-41.5 -72.4,-48.5 -6.6,-1.2 -21.3,-1.6 -83.7,-1.9 L 665,801.9 Z m 144.9,-67.7 c 12,4.9 18,11.7 20.1,22.8 3.1,16.3 -4.6,30.6 -19.8,36.7 -5.5,2.2 -7.1,2.3 -37.9,2.6 l -32.3,0.3 v -32.6 -32.6 l 32.3,0.3 c 30.4,0.3 32.5,0.4 37.6,2.5 z" />
    <path
       style="fill:#ffffff;fill-opacity:1;stroke:none;stroke-width:0.1"
       id="path4497"
       d="m 946.7,802.7 c -0.4,0.3 -0.7,14.5 -0.7,31.5 V 865 H 1052.5 1159 V 833.5 802 h -105.8 c -58.2,0 -106.2,0.3 -106.5,0.7 z" />
    <path
       style="fill:#ffffff;fill-opacity:1;stroke:none;stroke-width:0.1"
       id="path4499"
       d="M 1194,833.5 V 865 h 106 106 V 833.5 802 h -106 -106 z" />
    <path
       style="fill:#ffffff;fill-opacity:1;stroke:none;stroke-width:0.1"
       id="path4501"
       d="M 1461,937.5 V 1073 h 37.5 37.5 l 0.2,-73.9 0.3,-73.8 15.7,20.1 c 28.7,36.8 59.3,76 63.3,81.2 2.2,2.8 11.2,14.4 20,25.7 l 16,20.6 32.8,0.1 H 1717 V 937.5 802 h -37 -37 l -0.2,71.4 -0.3,71.5 -55.5,-71.4 -55.5,-71.5 h -35.2 -35.3 z" />
    <path
       style="fill:#ffffff;fill-opacity:1;stroke:none;stroke-width:0.1"
       id="path4503"
       d="m 1757.7,802.7 c -0.4,0.3 -0.7,14.5 -0.7,31.5 V 865 h 106 106 V 833.5 802 h -105.3 c -58,0 -105.7,0.3 -106,0.7 z" />
    <path
       style="fill:#ffffff;fill-opacity:1;stroke:none;stroke-width:0.1"
       id="path4505"
       d="M 2024,937.4 V 1073 h 37.5 37.5 v -41 -41 h 16.8 16.9 l 27.3,41 27.3,41 h 43 42.9 l -1.8,-2.8 c -1,-1.5 -15,-22.1 -31.2,-45.7 -16.2,-23.7 -29.7,-43.7 -29.9,-44.5 -0.3,-1 1.1,-2.3 4.4,-3.9 17.1,-8.3 31.5,-21.6 40.1,-37.1 6.9,-12.6 11,-33.5 9.8,-50.7 -1.7,-24.8 -8.9,-41.9 -24,-56.9 -14.3,-14.2 -29.9,-21.6 -56.6,-27.1 -6.2,-1.3 -20.3,-1.6 -83.7,-2 l -76.3,-0.4 z m 145.3,-67.5 c 8.5,3.4 13.7,7.8 17.2,14.6 2.7,5.2 3,6.8 3,14.9 0,7.4 -0.4,9.9 -2.3,13.8 -3.1,6.3 -10.6,13 -17.8,15.9 -5.7,2.3 -6.9,2.4 -38.1,2.7 l -32.3,0.3 v -32.6 -32.6 l 32.3,0.3 c 30.9,0.3 32.4,0.4 38,2.7 z" />
    <path
       style="fill:#ffffff;fill-opacity:1;stroke:none;stroke-width:0.1"
       id="path4507"
       d="m 946.7,907.7 c -0.4,0.3 -0.7,13.6 -0.7,29.5 V 966 h 73.5 73.5 V 936.5 907 h -72.8 c -40.1,0 -73.1,0.3 -73.5,0.7 z" />
    <path
       style="fill:#ffffff;fill-opacity:1;stroke:none;stroke-width:0.1"
       id="path4509"
       d="M 1194,936.5 V 966 h 73.5 73.5 l -0.2,-29.3 -0.3,-29.2 -73.2,-0.3 -73.3,-0.2 z" />
    <path
       style="fill:#ffffff;fill-opacity:1;stroke:none;stroke-width:0.1"
       id="path4511"
       d="m 1757.7,907.7 c -0.4,0.3 -0.7,13.6 -0.7,29.5 V 966 h 73.5 73.5 V 936.5 907 h -72.8 c -40.1,0 -73.2,0.3 -73.5,0.7 z" />
    <path
       style="fill:#ffffff;fill-opacity:1;stroke:none;stroke-width:0.1"
       id="path4513"
       d="m 946,1041.5 v 31.5 h 108 108 V 1041.5 1010 H 1054 946 Z" />
    <path
       style="fill:#ffffff;fill-opacity:1;stroke:none;stroke-width:0.1"
       id="path4515"
       d="M 1194,1041.5 V 1073 H 1301.5 1409 V 1041.5 1010 H 1301.5 1194 Z" />
    <path
       style="fill:#ffffff;fill-opacity:1;stroke:none;stroke-width:0.1"
       id="path4517"
       d="m 1757,1041.5 v 31.5 h 108 108 v -31.5 -31.5 h -108 -108 z" />
  </g>
</svg>
