<?xml version="1.0" encoding="iso-8859-1"?>
<!-- Generator: Adobe Illustrator 19.0.0, SVG Export Plug-In . SVG Version: 6.00 Build 0)  -->
<svg xmlns="http://www.w3.org/2000/svg" xmlns:xlink="http://www.w3.org/1999/xlink" version="1.1" id="Capa_1" x="0px" y="0px" viewBox="0 0 511.994 511.994" style="enable-background:new 0 0 511.994 511.994;" xml:space="preserve" width="512px" height="512px">
<g>
	<g>
		<polygon points="435.058,11.681 422.125,10.102 421.792,9.608 421.212,9.993 339.236,0 337.071,17.786 398.251,25.246     81.387,235.796 91.311,250.722 408.187,40.161 392.319,95.104 409.53,100.072 431.262,24.833 431.721,24.528 431.463,24.138   " fill="#006DF0"/>
	</g>
</g>
<g>
	<g>
		<path d="M435.719,494.082V111.121H325.976v382.961h-14.553V198.467H201.691v295.615h-14.559V294.76H77.39v199.322H33.726v17.912    h43.67h109.743h14.559h109.731h14.553h109.737h42.55v-17.912H435.719z M169.22,494.082H95.308v-181.41h73.912V494.082z     M293.505,494.082h-73.895V216.379h73.895V494.082z M417.8,494.088h-73.912v-0.006V129.039H417.8V494.088z" fill="#006DF0"/>
	</g>
</g>
<g>
</g>
<g>
</g>
<g>
</g>
<g>
</g>
<g>
</g>
<g>
</g>
<g>
</g>
<g>
</g>
<g>
</g>
<g>
</g>
<g>
</g>
<g>
</g>
<g>
</g>
<g>
</g>
<g>
</g>
</svg>
