<?xml version="1.0" encoding="iso-8859-1"?>
<!-- Generator: Adobe Illustrator 19.0.0, SVG Export Plug-In . SVG Version: 6.00 Build 0)  -->
<svg xmlns="http://www.w3.org/2000/svg" xmlns:xlink="http://www.w3.org/1999/xlink" version="1.1" id="Capa_1" x="0px" y="0px" viewBox="0 0 512 512" style="enable-background:new 0 0 512 512;" xml:space="preserve" width="512px" height="512px">
<g>
	<g>
		<path d="M511.122,5.902C509.508,2.31,505.938,0,502,0h-55c-2.857,0-5.579,1.223-7.477,3.359l-77.678,87.455    c-0.014-0.012-0.027-0.024-0.042-0.036C333.495,67.097,295.951,54.036,256.087,54c-39.816-0.054-77.432,12.959-105.781,36.59    c-28.872,24.065-44.789,56.236-44.819,90.603l0.025,121.615l-48.246,43.95c-2.054,1.871-3.233,4.592-3.264,7.36    c0,0.011-0.002,0.021-0.002,0.032v46.924c0,5.523,4.478,10,10,10h13.386L2.524,495.36c-2.614,2.943-3.259,7.147-1.646,10.739    C2.492,509.69,6.063,512,10,512h55c2.857,0,5.579-1.223,7.477-3.359l86.659-97.565h40.934C204.804,437.709,228.072,458,256,458    c27.929,0,51.201-20.29,55.932-46.925H448c5.522,0,10-4.477,10-10v-46.924c0-0.011-0.002-0.021-0.002-0.032    c-0.031-2.744-1.203-5.483-3.264-7.36l-48.246-43.95l-0.026-121.363c0.012-13.911-2.583-27.47-7.589-40.281L509.477,16.641    C512.091,13.698,512.736,9.493,511.122,5.902z M255.926,74h0.144c36.119,0.032,68.844,12.195,92.477,31.786l-128.36,144.515    h-94.656l-0.045-69.106C125.539,122.06,184.035,74,255.926,74z M202.423,270.302l-23.915,26.925h-52.996v-26.925H202.423z     M119.384,317.226h41.36l-23.915,26.925H89.827L119.384,317.226z M74,391.075v-26.924h45.064L95.15,391.075H74z M256,438    c-16.85,0-31.079-11.41-35.439-26.925h70.885C287.086,426.591,272.851,438,256,438z M438,391.075H176.9l23.914-26.924H438V391.075    z M422.173,344.151H218.578l23.915-26.925h150.123L422.173,344.151z M386.489,270.302v26.925H260.258l23.915-26.925H386.489z     M301.937,250.301l81.536-91.798c1.958,7.395,2.996,15.069,2.989,22.94l0.045,68.858H301.937z M60.507,492h-28.25L451.493,20    h28.25L60.507,492z" fill="#006DF0"/>
	</g>
</g>
<g>
</g>
<g>
</g>
<g>
</g>
<g>
</g>
<g>
</g>
<g>
</g>
<g>
</g>
<g>
</g>
<g>
</g>
<g>
</g>
<g>
</g>
<g>
</g>
<g>
</g>
<g>
</g>
<g>
</g>
</svg>
