<?xml version="1.0" encoding="iso-8859-1"?>
<!-- Generator: Adobe Illustrator 18.1.1, SVG Export Plug-In . SVG Version: 6.00 Build 0)  -->
<svg xmlns="http://www.w3.org/2000/svg" xmlns:xlink="http://www.w3.org/1999/xlink" version="1.1" id="Capa_1" x="0px" y="0px" viewBox="0 0 290.142 290.142" style="enable-background:new 0 0 290.142 290.142;" xml:space="preserve" width="512px" height="512px">
<path color-rendering="auto" image-rendering="auto" shape-rendering="auto" color-interpolation="sRGB" d="M4.961,0  C2.202,0.042-0.002,2.311,0.037,5.07v280c-0.039,2.761,2.168,5.032,4.929,5.071c2.761,0.039,5.032-2.168,5.071-4.929  c0.001-0.047,0.001-0.094,0-0.141v-57.065c11.751-1.365,23.175-8.717,25.897-21.926c0.01-0.038,0.016-0.077,0.023-0.115  l10.162-55.894h59.834l10.162,55.895c0.01,0.039,0.014,0.077,0.023,0.115c6.07,29.414,53.732,29.415,59.793,0  c0.01-0.038,0.017-0.077,0.025-0.115l10.16-55.895h59.834l10.162,55.895c1.193,6.56,11.034,4.771,9.842-1.789l-9.838-54.105h16.85  l-1.465,1.465c-1.992,1.913-2.057,5.078-0.144,7.07s5.078,2.057,7.07,0.144c0.049-0.047,0.097-0.095,0.144-0.144l9.289-9.289  c1.694-1.118,2.543-3.15,2.15-5.141c-0.223-1.294-0.946-2.449-2.014-3.215l-9.426-9.426c-0.942-0.969-2.236-1.516-3.588-1.516  c-2.762,0.002-4.999,2.242-4.997,5.004c0.001,1.35,0.547,2.641,1.515,3.582l1.465,1.465h-18.668l-8.344-45.895  c0-0.019-0.012-0.038-0.014-0.057c-2.973-15.325-16.749-23.361-29.906-23.361s-26.932,8.035-29.91,23.359  c0,0.02-0.01,0.039-0.012,0.059l-8.344,45.895h-63.473l-8.344-45.891c0-0.019-0.01-0.038-0.012-0.057  c-2.973-15.325-16.749-23.361-29.906-23.361S49.1,78.796,46.123,94.121c0,0.02-0.01,0.039-0.012,0.059l-8.344,45.895H10.031v-135  c0.039-2.761-2.168-5.031-4.93-5.07c-0.049-0.001-0.098-0.001-0.147,0L4.961,0z M76.037,80.758c9.34,0,18.061,4.837,20.088,15.256  l8.01,44.057H47.937l8.008-44.047v-0.01C57.975,85.594,66.698,80.758,76.037,80.758L76.037,80.758z M216.035,80.758  c9.34,0,18.061,4.837,20.088,15.256l8.01,44.057h-56.197l8.008-44.047v-0.01C197.973,85.594,206.696,80.758,216.035,80.758  L216.035,80.758z M10.037,150.07h25.918l-9.82,54.01c-1.691,8.16-8.301,12.734-16.098,13.881  C10.037,217.961,10.037,150.07,10.037,150.07z M116.115,150.07h59.836l-9.82,54.014c-3.951,19.053-36.24,19.052-40.195,0  C125.935,204.084,116.115,150.07,116.115,150.07z" fill="#006DF0"/>
<g>
</g>
<g>
</g>
<g>
</g>
<g>
</g>
<g>
</g>
<g>
</g>
<g>
</g>
<g>
</g>
<g>
</g>
<g>
</g>
<g>
</g>
<g>
</g>
<g>
</g>
<g>
</g>
<g>
</g>
</svg>
